<?xml version="1.0" encoding="UTF-8"?>
<!-- Created with Inkscape (http://www.inkscape.org/) -->
<svg width="100%" height="100%" version="1.1" viewBox="0 0 100 100" xmlns="http://www.w3.org/2000/svg">
 <g transform="translate(50,-50)">
  <circle cx="3.5527e-15" cy="100" r="50" stroke-width=".151"/>
  <circle cx="8.8818e-16" cy="100" r="43" fill="#fff" stroke-width=".27957"/>
  <circle cy="100" r="17.5" stroke-width=".25739"/>
  <circle cx="-4.4409e-16" cy="100" r="12" fill="#fff" stroke-width=".27026"/>
  <rect x="-50" y="96.75" width="100" height="6.5" stroke-width=".26241"/>
  <circle cx="1.1102e-16" cy="100" r="12" fill="#fff" stroke-width=".16452"/>
  <circle cx="3.5527e-15" cy="100" r="50" stroke-width=".151"/>
  <circle cx="8.8818e-16" cy="100" r="43" fill="#fff" stroke-width=".27957"/>
  <circle cy="100" r="17.5" stroke-width=".25739"/>
  <circle cx="-4.4409e-16" cy="100" r="12" fill="#fff" stroke-width=".27026"/>
  <rect x="-50" y="96.75" width="100" height="6.5" stroke-width=".26241"/>
  <g>
   <circle cx="1.1102e-16" cy="100" r="12" fill="#fff" stroke-width=".16452"/>
   <g stroke-width=".79188">
    <path transform="scale(.26458)" d="m-3.5718 213.75c-64.98 0.46042-126.27 44.224-149.32 104.72-5.7089 14.98-9.9829 31.062-10.833 46.939 4.7109 3.8502 12.956 0.70501 18.936 1.7875 26.743-0.34005 53.826 0.45157 80.344-1.0628 4.852-11.978 9.865-25.288 20.155-34.278 20.834-21.079 56.367-23.941 80.412-6.664 13.874 9.145 22.912 24.016 27.222 39.838 6.8313 3.9468 16.597 0.7051 24.55 1.8658 24.898-0.10189 49.911 0.99395 74.749-0.17473 3.1558-6.3923-1.3879-14.785-1.8699-21.951-12.87-65.861-70.022-119.8-136.43-129.16-9.2301-1.4185-18.582-2.0418-27.919-1.8608z" fill="#a00"/>
    <path transform="scale(.26458)" d="m-163.58 389.62c0.31523 17.406 5.8338 34.975 11.97 51.369 25.848 63.434 94.446 106.97 163.06 100.63 60.999-3.3664 117.55-44.419 140.15-101.09 6.305-16.198 11.854-33.626 11.954-50.927-20.897-1.8336-42.564 0.0309-63.759-0.3712-11.939 0.68383-24.419-0.99781-36.022 1.1571-5.994 21.535-20.676 41.158-42.55 47.916-25.02 8.5625-55.112 0.92513-71.534-20.667-7.2926-7.9369-9.5769-18.972-14.493-27.984-32.258-0.61007-64.582-0.54356-96.865-0.89161l-1.2638 0.57282z" fill="#f9f9f9"/>
    <path transform="scale(.26458)" d="m-11.681 421.07c-9.3895-2.6198-15.117-6.12-21.407-13.083-6.38-7.0619-8.5434-11.432-10.601-21.416-3.0753-14.92 1.6037-29.898 12.702-40.663 9.0955-8.8218 17.613-12.166 30.987-12.166s21.892 3.344 30.987 12.166c7.4358 7.2121 10.59 13.17 12.729 24.047 6.2917 31.98-23.955 59.888-55.398 51.115z" fill="#f9f9f9"/>
   </g>
  </g>
 </g>
</svg>
